<?xml version="1.0" encoding="UTF-8" standalone="no"?>
<!-- Created with Inkscape (http://www.inkscape.org/) -->
<svg
   xmlns:svg="http://www.w3.org/2000/svg"
   xmlns="http://www.w3.org/2000/svg"
   version="1.0"
   width="744.09448"
   height="364.25195"
   id="svg7217">
  <defs
     id="defs7219" />
  <g
     transform="translate(-2978.3702,2539.6557)"
     id="layer1">
    <g
       id="g15404">
      <path
         d="M 3422.5775,-2239.3741 C 3403.8943,-2167.1467 3271.3288,-2188.1674 3152.8892,-2258.5451 C 3037.6364,-2326.2321 2973.4053,-2429.9065 3005.7437,-2485.2333 C 3038.0904,-2540.56 3151.9727,-2526.35 3268.1421,-2461.0173 C 3350.1399,-2414.8557 3443.531,-2321.187 3422.5775,-2239.3741 z M 3387.9522,-2259.8904 C 3372.918,-2204.1433 3260.8519,-2216.5036 3162.4578,-2274.5209 C 3067.242,-2330.7725 3013.9416,-2417.126 3041.2772,-2462.8671 C 3068.1585,-2509.0289 3164.728,-2501.7136 3258.5733,-2443.1917 C 3323.2669,-2403 3406.1729,-2327.9979 3387.9522,-2259.8904 z M 3351.9645,-2280.0703 C 3340.1172,-2235.254 3250.3752,-2244.8396 3172.018,-2291.4217 C 3096.402,-2336.238 3055.4032,-2409.3904 3075.4402,-2441.8465 C 3098.2266,-2477.9181 3177.0379,-2470.6029 3249.013,-2426.291 C 3300.9428,-2394.7599 3366.9985,-2334.3881 3351.9645,-2280.0703 z M 3256.2947,-2333.4632 C 3252.1998,-2318.9168 3223.5023,-2321.6075 3198.8995,-2336.6583 C 3174.7508,-2350.8684 3161.9954,-2374.1595 3168.3773,-2384.6699 C 3175.6673,-2396.5256 3200.7242,-2394.2553 3223.9563,-2380.1294 C 3239.8984,-2370.0394 3260.8519,-2350.8684 3256.2947,-2333.4632 z M 3045.8344,-2514.4943 L 3177.4836,-2391.0603 M 3086.7628,-2519.6664 L 3184.3194,-2391.9851 M 3136.4112,-2513.5807 L 3194.7962,-2391.5648 M 3189.3308,-2498.5185 L 3208.0057,-2387.4447 M 3244.9098,-2473.798 L 3220.307,-2381.9792 M 3298.6642,-2441.3419 L 3233.979,-2373.2345 M 3348.3236,-2402.075 L 3241.269,-2366.4238 M 3389.3227,-2357.2587 L 3249.4672,-2357.6792 M 3412.5549,-2317.4874 L 3254.0244,-2349.5231 M 3424.8478,-2279.1455 L 3256.7572,-2341.2829 M 3423.9397,-2244.4191 L 3256.2947,-2333.4632 M 3409.8222,-2216.9239 L 3253.5619,-2328.5024 M 3380.208,-2199.0983 L 3247.6425,-2325.3071 M 3338.755,-2194.5577 L 3239.8984,-2323.8778 M 3228.9677,-2324.8026 L 3288.1874,-2201.4526 M 3217.1203,-2327.9979 L 3233.5249,-2217.8489 M 3204.8189,-2333.0428 L 3179.3082,-2243.4941 M 3193.434,-2340.3581 L 3125.0997,-2275.4457 M 3182.9573,-2349.0186 L 3076.8106,-2314.7967 M 3174.2968,-2358.1837 L 3036.7198,-2358.1837 M 3169.2854,-2367.3487 L 3011.209,-2398.8799 M 3167.0068,-2376.4298 L 2997.9995,-2438.6512 M 3167.9233,-2383.3246 L 2999.3702,-2472.8731 M 3170.6559,-2386.9402 L 3016.2204,-2499.4435 L 3170.6559,-2386.9402 M 3170.6559,-2386.9402 L 3016.2204,-2499.4435"
         style="fill:none;stroke:#4c6895;stroke-width:2.6149869;stroke-linecap:butt;stroke-linejoin:miter;stroke-miterlimit:2.61299992"
         id="path14547" />
      <g
         id="g15388">
        <path
           d="M 3438.5198,-2357.2587 L 3441.7066,-2380.5498 L 3405.7189,-2380.5498 L 3413.9171,-2436.8014 L 3387.9522,-2436.8014 L 3374.7427,-2357.2587 L 3438.5198,-2357.2587"
           style="fill:#4c6895;fill-rule:evenodd;stroke:none;stroke-width:0.249;stroke-linecap:butt;stroke-linejoin:miter;stroke-miterlimit:2.61299992;stroke-dasharray:none"
           id="path14567" />
        <path
           d="M 3704.1133,-2436.2969 C 3702.768,-2429.4862 3701.843,-2422.5914 3699.5727,-2416.201 C 3692.7621,-2415.2762 3684.9424,-2415.7807 3677.7113,-2415.7807 L 3675.441,-2414.8557 L 3664.9306,-2358.604 L 3664.5101,-2357.2587 L 3638.9488,-2357.2587 L 3638.5284,-2357.6792 C 3641.2191,-2376.4298 3644.9187,-2395.1803 3646.6845,-2413.9307 C 3646.6845,-2414.8557 3645.7595,-2415.2762 3645.3392,-2415.2762 L 3623.0571,-2415.2762 C 3620.7028,-2416.7055 3623.0571,-2419.9008 3622.5526,-2421.6664 L 3625.3274,-2436.2969 L 3626.6726,-2437.2219 L 3703.6928,-2437.2219 L 3704.1133,-2436.2969"
           style="fill:#4c6895;fill-rule:evenodd;stroke:none;stroke-width:0.15099999;stroke-linecap:butt;stroke-linejoin:miter;stroke-miterlimit:2.61299992;stroke-dasharray:none"
           id="path14571" />
        <path
           d="M 3619.862,-2437.2219 L 3616.1622,-2418.0508 L 3614.8169,-2417.126 L 3576.9795,-2417.126 L 3575.6342,-2408.8858 L 3608.4266,-2408.4654 L 3608.9311,-2407.9609 L 3605.736,-2389.2945 L 3604.3065,-2387.865 C 3593.8803,-2387.865 3582.9494,-2388.3695 3572.9436,-2387.4447 C 3572.0186,-2384.6699 3571.5141,-2381.9792 3571.0936,-2378.7841 L 3610.2765,-2378.7841 L 3608.4266,-2357.2587 L 3606.5768,-2356.8384 L 3540.067,-2356.8384 C 3539.6466,-2357.2587 3539.6466,-2357.2587 3539.2262,-2357.6792 L 3552.4273,-2435.3721 C 3552.4273,-2436.2969 3552.8476,-2437.2219 3553.7726,-2437.2219 L 3619.862,-2437.2219"
           style="fill:#4c6895;fill-rule:evenodd;stroke:none;stroke-width:0.15099999;stroke-linecap:butt;stroke-linejoin:miter;stroke-miterlimit:2.61299992;stroke-dasharray:none"
           id="path14581" />
        <path
           d="M 3485.8922,-2437.2219 C 3493.1822,-2424.4412 3498.6477,-2411.2402 3505.4835,-2398.3754 L 3505.9377,-2398.3754 L 3512.7735,-2436.2969 L 3514.1442,-2437.2219 L 3537.3763,-2437.2219 L 3538.7217,-2436.2969 L 3525.0749,-2358.1837 L 3524.1584,-2356.8384 L 3500.0182,-2356.8384 C 3493.1822,-2369.1144 3487.7168,-2381.9792 3481.7974,-2393.8349 L 3480.8893,-2393.8349 C 3478.1482,-2381.4746 3475.8779,-2369.1144 3472.6828,-2356.8384 C 3464.9387,-2356.3339 3456.7405,-2357.2587 3448.5424,-2356.8384 L 3448.0884,-2357.6792 C 3452.1833,-2384.6699 3456.7405,-2410.3152 3461.2979,-2436.2969 L 3462.2059,-2437.2219 L 3485.8922,-2437.2219"
           style="fill:#4c6895;fill-rule:evenodd;stroke:none;stroke-width:0.15099999;stroke-linecap:butt;stroke-linejoin:miter;stroke-miterlimit:2.61299992;stroke-dasharray:none"
           id="path14585" />
        <path
           d="M 3340.5797,-2437.2219 L 3314.6063,-2437.2219 L 3300.4888,-2357.2587 L 3364.2659,-2357.2587 L 3368.8232,-2380.1294 L 3331.465,-2380.1294 L 3340.5797,-2437.2219"
           style="fill:#4c6895;fill-rule:evenodd;stroke:none;stroke-width:0.15099999;stroke-linecap:butt;stroke-linejoin:miter;stroke-miterlimit:2.61299992;stroke-dasharray:none"
           id="path14589" />
        <path
           d="M 3277.7107,-2437.2219 L 3250.8293,-2437.2219 L 3207.5517,-2357.2587 L 3234.433,-2357.2587 L 3239.8984,-2368.2736 L 3266.3174,-2368.2736 L 3267.6879,-2357.2587 L 3295.9316,-2357.2587 L 3277.7107,-2437.2219 z M 3249.4672,-2386.9402 L 3259.4898,-2407.5406 L 3263.5847,-2386.9402 L 3249.4672,-2386.9402"
           style="fill:#4c6895;fill-rule:evenodd;stroke:none;stroke-width:0.15099999;stroke-linecap:butt;stroke-linejoin:miter;stroke-miterlimit:2.61299992;stroke-dasharray:none"
           id="path14593" />
      </g>
    </g>
  </g>
</svg>
