<?xml version="1.0" encoding="UTF-8" standalone="no"?>
<!-- Created with Inkscape (http://www.inkscape.org/) -->
<svg
   xmlns:svg="http://www.w3.org/2000/svg"
   xmlns="http://www.w3.org/2000/svg"
   version="1.0"
   width="744.09448"
   height="167.95276"
   id="svg2378">
  <defs
     id="defs2380" />
  <g
     transform="translate(-44.79458,-450.9643)"
     id="layer1">
    <g
       transform="matrix(1.1159837,0,0,1.1159837,12.521089,-50.018839)"
       id="g2594">
      <path
         d="M 107.82943,583.49159 C 107.97805,583.49159 108.12969,583.49159 108.27228,583.49159 C 108.34812,583.49159 108.4118,583.49159 108.48154,583.49159 C 113.25877,583.49159 117.75996,582.1267 121.64539,579.30587 C 124.13563,577.51631 126.03741,575.42341 127.58432,572.7846 C 128.60041,571.0557 129.3223,569.26614 129.84705,567.35525 C 129.8622,567.26427 129.87735,567.20358 129.9047,567.11262 C 129.95016,566.96096 129.99263,566.77897 130.03511,566.6273 C 132.71943,556.61791 135.39164,546.60852 138.07904,536.59915 C 139.1497,529.16794 135.41894,525.49781 130.14123,524.10259 C 136.66555,523.25329 142.38002,518.33959 144.60635,512.24298 C 147.20272,502.53693 149.80515,492.80051 152.41062,483.09443 C 152.74123,481.88118 153.07185,480.69827 153.38427,479.48499 C 153.68756,478.24137 153.79072,476.9978 153.68756,475.72388 C 153.4995,473.20637 152.49252,470.77986 150.8273,468.869 C 149.15607,466.92777 146.9115,465.59319 144.4031,465.04723 C 143.16255,464.77423 141.94627,464.77423 140.69661,464.77423 C 139.45606,464.77423 138.20942,464.77423 136.95369,464.77423 C 116.8318,464.77423 96.71902,464.77423 76.59409,464.77423 L 44.79458,583.49159 C 65.51703,583.49159 86.23948,583.49159 106.96196,583.49159 C 107.25616,583.49159 107.54732,583.49159 107.82943,583.49159 z M 103.01279,481.39588 C 105.94584,481.39588 108.87891,481.39588 111.82106,481.39588 C 113.27998,481.39588 114.75108,481.39588 116.2161,481.39588 C 116.93494,481.39588 117.68413,481.39588 118.40601,481.39588 C 118.77304,481.39588 119.13394,481.36553 119.50099,481.45654 C 119.87405,481.54752 120.18951,481.72951 120.48978,481.97216 C 121.05094,482.48781 121.3421,483.21576 121.27233,483.94368 C 121.24808,484.24705 120.82039,485.82428 120.74458,486.06693 C 120.3715,487.49251 119.98931,488.91807 119.61016,490.31331 C 118.84583,493.16448 118.09057,495.98529 117.34136,498.83646 C 116.57401,501.65728 115.80962,504.50845 115.04526,507.32928 C 114.67522,508.72452 114.33251,510.11976 113.91997,511.54535 C 113.50746,512.97093 112.55203,514.21453 111.24475,514.97283 C 109.7191,515.88277 108.64534,515.79176 106.98317,515.79176 C 105.5212,515.79176 104.05923,515.79176 102.60028,515.79176 C 99.65509,515.79176 96.72509,515.79176 93.78596,515.79176 L 103.01279,481.39588 z M 103.65278,549.88433 C 102.89147,552.73547 102.14228,555.5563 101.3749,558.40744 C 100.99877,559.80274 100.65301,561.19798 100.24959,562.59322 C 99.82799,564.0188 98.87863,565.26238 97.57437,566.05102 C 96.04263,566.96096 94.96283,566.86995 93.30065,566.86995 C 91.84777,566.86995 90.38278,566.86995 88.92082,566.86995 C 85.9847,566.86995 83.04258,566.86995 80.11253,566.86995 L 89.33026,532.4134 C 92.27243,532.4134 95.20548,532.4134 98.13855,532.4134 C 99.60051,532.4134 101.06248,532.4134 102.53051,532.4134 C 103.27062,532.4134 104.00463,532.4134 104.7356,532.4134 C 105.09958,532.4134 105.45749,532.4134 105.82147,532.50439 C 106.20366,532.59539 106.51608,532.74706 106.80724,533.02003 C 107.3714,533.53565 107.67169,534.2636 107.5989,535.0219 C 107.57467,535.29492 107.13786,536.87215 107.06507,537.14512 C 106.69503,538.54036 106.30981,539.96594 105.93977,541.36121 C 105.1724,544.21236 104.40804,547.0635 103.65278,549.88433"
         style="fill:#ec1b24;fill-rule:nonzero;stroke:none"
         id="path24" />
      <path
         d="M 557.29634,566.99127 C 555.05179,567.05194 547.74191,566.86995 542.03959,566.86995 C 539.18845,566.86995 536.36762,566.86995 533.51645,566.86995 C 532.81884,566.86995 532.09086,566.86995 531.39323,566.86995 C 530.69562,566.86995 529.96767,566.90029 529.27004,566.8396 C 527.69283,566.77897 526.7222,565.29272 527.11653,563.77613 C 530.05868,552.79616 533.03115,541.78582 535.9733,530.77551 C 541.8576,508.78521 547.77225,486.76456 553.65655,464.77423 C 551.41201,464.77423 549.19784,464.77423 546.95327,464.77423 C 546.286,464.77423 540.97801,464.74389 540.31072,464.77423 C 535.73065,464.89556 531.30227,466.35146 527.54114,468.95996 C 523.74971,471.56848 520.77724,475.23858 519.04834,479.54565 C 518.19906,481.57787 517.71376,483.70108 517.1678,485.79393 C 516.59149,487.94744 516.01518,490.07066 515.4389,492.2242 C 510.76785,509.60414 506.12712,526.95374 501.45609,544.33366 C 500.30348,548.70139 499.15089,553.03881 497.9983,557.3762 C 497.39167,559.56006 496.81536,561.74394 496.20876,563.89748 C 495.93574,564.98941 495.63245,566.08133 495.35946,567.17326 C 495.05614,568.26522 494.75286,569.3268 494.6315,570.44907 C 494.23718,574.54381 495.99643,578.60824 499.30258,581.06509 C 500.94045,582.30868 502.85133,583.0973 504.91386,583.40061 C 505.91484,583.52194 506.91576,583.49159 507.88639,583.49159 C 508.97831,583.49159 510.0399,583.49159 511.10151,583.49159 C 511.95078,583.49159 512.76972,583.49159 513.5887,583.49159 C 531.60556,583.49159 563.87828,583.5826 563.87828,583.5826 C 563.87828,583.5826 555.93139,583.64326 557.29634,566.99127"
         style="fill:#ec1b24;fill-rule:nonzero;stroke:none"
         id="path26" />
      <path
         d="M 580.5909,583.30961 C 581.53116,583.46128 582.50179,583.49159 583.50271,583.49159 C 584.47331,583.49159 585.44392,583.49159 586.44489,583.49159 C 588.38609,583.49159 590.3273,583.49159 592.32917,583.49159 C 596.24195,583.49159 600.1547,583.49159 604.06743,583.49159 C 608.01055,583.49159 611.92328,583.49159 615.83609,583.49159 C 617.80761,583.49159 619.74884,583.49159 621.72039,583.49159 C 622.5393,583.49159 626.78571,583.49159 627.57435,583.46128 C 635.70317,583.15794 643.13439,578.69924 647.22913,571.63201 C 648.16941,569.96377 648.92771,568.2349 649.47367,566.38467 C 649.98929,564.50408 650.44427,562.65388 650.95989,560.77331 C 651.96087,557.04257 652.96179,553.31178 653.96273,549.5507 C 658.02713,534.41527 662.09156,519.27987 666.15595,504.11416 C 668.15785,496.59194 670.19006,489.0394 672.19195,481.48686 C 672.76826,479.33332 673.22319,478.05938 673.0412,475.72388 C 672.88956,473.75233 672.25259,471.84144 671.16066,470.14292 C 668.97683,466.80642 665.2157,464.77423 661.21193,464.77423 C 645.5306,464.77423 629.84919,464.77423 614.19817,464.77423 C 606.06932,464.77423 598.51681,468.92961 594.1491,475.78454 C 593.08746,477.42246 592.29885,479.15133 591.6619,481.00156 C 591.32822,482.03285 590.4183,485.49062 590.14531,486.55223 C 589.14439,490.283 588.14342,494.01376 587.1425,497.74453 C 583.0781,512.91027 579.01365,528.07601 574.94922,543.24173 C 573.94833,547.00284 572.91704,550.79427 571.91609,554.55538 C 571.40047,556.43592 570.91517,558.31649 570.3995,560.19703 C 569.88388,562.07757 569.36826,563.95812 568.88296,565.83868 C 566.91141,573.96753 572.31041,582.06601 580.5909,583.30961 z M 600.42769,563.3212 C 600.54902,562.80552 600.70066,562.2899 600.85231,561.74394 C 601.42862,559.65109 601.97458,557.55819 602.55089,555.46532 C 603.67313,551.24925 604.76509,547.0635 605.91768,542.87775 C 608.1622,534.47593 610.40674,526.07412 612.65123,517.6723 C 614.8958,509.30083 617.14032,500.89901 619.41518,492.49722 C 619.96115,490.40432 620.53743,488.31145 621.08339,486.24892 C 621.23506,485.73324 621.35641,485.21762 621.59904,484.73232 C 621.84169,484.2167 622.145,483.7617 622.509,483.36743 C 623.32794,482.45746 624.17722,481.9115 625.36015,481.57787 C 626.42173,481.30487 627.48334,481.39588 628.54498,481.39588 C 629.63688,481.39588 630.69851,481.39588 631.79042,481.39588 C 633.94395,481.39588 636.12781,481.39588 638.28135,481.39588 C 639.43396,481.39588 640.40457,482.18449 640.61687,483.30676 C 640.7382,483.88307 640.55621,484.39869 640.43488,484.91431 C 640.28322,485.4603 640.16192,485.97592 640.01027,486.49154 C 639.43396,488.58444 638.888,490.70763 638.31169,492.80051 C 637.21974,496.98626 636.06715,501.17198 634.9449,505.35773 C 632.70036,513.75955 630.45584,522.16136 628.21129,530.56321 C 625.93646,538.93468 623.69191,547.3365 621.44737,555.73829 C 620.90141,557.80087 620.35544,559.89372 619.77916,561.98659 C 619.62749,562.53256 619.50616,563.01786 619.26351,563.50318 C 619.02089,564.0188 618.71752,564.47379 618.35357,564.86805 C 617.53464,565.77802 616.68534,566.32398 615.5024,566.65762 C 614.44082,566.96096 613.37921,566.86995 612.3176,566.86995 C 611.22567,566.86995 610.13375,566.86995 609.07214,566.86995 C 606.88831,566.86995 604.73477,566.86995 602.58121,566.86995 C 601.42862,566.86995 600.45799,566.05102 600.24568,564.92874 C 600.12436,564.35244 600.27602,563.86716 600.42769,563.3212"
         style="fill:#ec1b24;fill-rule:nonzero;stroke:none"
         id="path28" />
      <path
         d="M 381.70744,583.49159 L 401.63521,583.49159 L 419.95541,554.98002 L 454.56365,554.98002 L 451.7428,583.49159 L 481.43729,583.49159 L 493.1756,464.77423 C 489.53582,464.77423 485.92637,464.77423 482.28662,464.77423 C 480.46674,464.77423 478.67715,464.77423 476.85727,464.77423 C 475.03736,464.77423 473.2478,464.71354 471.42792,464.77423 C 464.08771,464.98654 457.17215,468.29269 452.37977,473.87366 C 451.22715,475.23858 450.25658,476.75517 449.28595,478.27171 C 448.28505,479.7883 447.31443,481.33521 446.3438,482.85178 C 444.37225,485.91526 442.4007,488.94842 440.42918,492.01187 C 436.5164,498.1085 432.60364,504.23546 428.69091,510.30175 C 413.00953,534.71861 397.35848,559.10513 381.70744,583.49159 z M 460.87257,491.22328 L 456.20152,538.35837 L 430.60175,538.35837 L 460.87257,491.22328"
         style="fill:#ec1b24;fill-rule:nonzero;stroke:none"
         id="path30" />
      <path
         d="M 143.97849,558.86245 C 143.15042,561.98659 142.30721,565.14108 141.46704,568.26522 C 141.0424,569.87276 140.87254,571.41967 141.08484,573.08788 C 141.28505,574.78646 141.80067,576.24239 142.68331,577.72864 C 144.4031,580.57979 147.227,582.58163 150.48761,583.24897 C 152.10124,583.5826 153.69971,583.49159 155.31938,583.49159 C 156.95124,583.49159 158.57096,583.49159 160.19064,583.49159 C 166.68157,583.49159 173.17859,583.49159 179.68165,583.49159 C 186.09979,583.49159 192.52399,583.49159 198.94216,583.49159 C 200.52542,583.49159 202.07233,583.43096 203.64048,583.18828 C 205.25714,582.91531 206.82226,582.52102 208.36915,581.91436 C 211.52361,580.73143 214.39299,578.85089 216.77705,576.42438 C 219.18232,573.99785 220.88694,571.35901 222.10022,568.14386 C 222.67047,566.65762 223.02838,565.11073 223.45299,563.56382 C 223.8655,562.01691 224.2871,560.43968 224.7057,558.8928 C 226.37997,552.61417 228.06335,546.36589 229.74679,540.08727 C 236.46215,514.97283 243.21395,489.88868 249.91719,464.77423 L 219.05795,464.77423 C 214.15034,483.03377 209.25785,501.32363 204.36237,519.61351 C 201.90552,528.74327 199.46384,537.90339 197.01001,547.0635 C 195.79371,551.61323 194.57439,556.16295 193.35203,560.71268 C 193.0578,561.83492 192.8546,562.95722 192.22979,564.0188 C 191.57462,565.08039 190.61008,565.89935 189.47568,566.38467 C 188.18053,566.96096 187.34336,566.86995 186.01487,566.86995 C 184.82584,566.86995 183.64902,566.86995 182.47822,566.86995 C 181.29526,566.86995 180.10628,566.86995 178.92335,566.86995 C 178.3319,566.86995 177.74346,566.86995 177.15807,566.86995 C 176.8851,566.86995 175.65667,566.86995 175.38368,566.8396 C 174.15224,566.6273 173.30598,565.44436 173.44247,564.23114 C 173.46369,563.98846 173.80947,562.71454 173.87315,562.50224 C 174.03091,561.92593 174.17345,561.34962 174.33422,560.80366 C 175.5596,556.22361 176.78501,551.67389 178.01039,547.09384 C 180.45813,537.93373 182.9059,528.80396 185.35364,519.64385 C 190.25824,501.35397 195.16285,483.03377 200.06742,464.77423 L 169.19911,464.77423 C 162.47763,489.85833 155.73798,514.97283 149.01349,540.08727 C 147.33312,546.33555 145.674,552.61417 143.97849,558.86245"
         style="fill:#ec1b24;fill-rule:nonzero;stroke:none"
         id="path32" />
      <path
         d="M 260.83654,583.49159 L 272.93881,538.35837 L 308.54791,538.51004 L 318.436,521.73673 L 277.3975,521.73673 C 279.24772,514.85147 281.09797,507.96622 282.94817,501.05068 C 283.85811,497.62323 284.79839,494.16541 285.70833,490.70763 C 286.13297,489.0394 286.49695,487.34084 287.43721,485.82428 C 288.43818,484.27737 289.83342,483.03377 291.53197,482.24515 C 293.44289,481.36553 294.7168,481.39588 296.74899,481.39588 C 298.53855,481.39588 300.32811,481.39588 302.0873,481.39588 C 305.66645,481.39588 309.24555,481.39588 312.82467,481.39588 C 319.9526,481.39588 336.30122,481.33521 337.24151,481.39588 C 339.85,465.95717 349.10112,464.77423 349.10112,464.77423 C 349.10112,464.77423 312.43038,464.77423 295.59642,464.77423 C 290.37938,464.77423 285.16237,464.74389 279.91504,464.77423 C 279.82403,464.77423 279.73305,464.77423 279.64204,464.77423 C 279.42971,464.77423 279.24772,464.77423 279.03539,464.77423 C 278.6411,464.80455 278.24683,464.83489 277.85251,464.86524 C 277.06387,464.92588 276.24493,465.04723 275.45629,465.19887 C 273.78806,465.5325 272.21083,466.01783 270.66392,466.68512 C 266.66016,468.38365 263.2327,471.17418 260.6849,474.69262 C 259.47159,476.42149 258.50102,478.21108 257.77306,480.1826 C 257.2271,481.66885 256.49912,484.48967 256.10483,486.00627 C 247.3997,518.49126 238.69457,551.0066 229.98639,583.49159 L 260.83654,583.49159"
         style="fill:#ec1b24;fill-rule:nonzero;stroke:none"
         id="path34" />
      <path
         d="M 323.19804,583.49159 L 354.07546,583.49159 L 366.14738,538.35837 L 394.93198,538.60102 L 405.60866,521.73673 L 370.60615,521.73673 C 372.57767,514.45718 374.5189,507.17761 376.46011,499.89807 C 377.43071,496.25831 378.40131,492.61852 379.40223,489.00908 C 379.61457,488.12946 379.88756,487.28018 380.3122,486.46122 C 380.76716,485.5816 381.31312,484.85365 382.01078,484.15602 C 383.34533,482.79114 385.10457,481.88118 387.01544,481.5172 C 387.95572,481.36553 388.83534,481.39588 389.7756,481.39588 C 390.71588,481.39588 391.68651,481.39588 392.6268,481.39588 C 394.50731,481.39588 396.4182,481.39588 398.29877,481.39588 C 402.05985,481.39588 405.82099,481.39588 409.58207,481.39588 C 417.13461,481.39588 430.84442,481.5172 432.17903,481.39588 C 441.58177,463.34867 447.10209,464.77423 447.10209,464.77423 C 447.10209,464.77423 409.64274,464.77423 392.41446,464.77423 C 386.89414,464.77423 381.34346,464.77423 375.79282,464.77423 C 374.88288,464.77423 373.97294,464.74389 373.063,464.77423 C 372.94165,464.77423 372.78998,464.77423 372.63833,464.77423 C 372.36534,464.77423 372.09237,464.77423 371.81938,464.80455 C 371.24309,464.83489 370.66678,464.89556 370.09048,464.95622 C 368.93789,465.13821 367.78527,465.38086 366.66305,465.68415 C 362.41664,466.92777 358.59489,469.29359 355.62237,472.5694 C 354.16646,474.20731 352.98353,475.93621 352.01293,477.90774 C 350.92102,480.03095 350.55705,481.39588 349.9504,483.70108 C 341.03296,516.97469 332.1155,550.2483 323.19804,583.49159"
         style="fill:#ec1b24;fill-rule:nonzero;stroke:none"
         id="path36" />
      <path
         d="M 659.21007,582.36935 L 659.21007,570.63106 L 654.84236,570.63106 L 654.84236,569.08415 L 665.36734,569.08415 L 665.36734,570.63106 L 660.96928,570.63106 L 660.96928,582.36935 L 659.21007,582.36935"
         style="fill:#ec1b24;fill-rule:nonzero;stroke:none"
         id="path38" />
      <path
         d="M 667.09624,582.36935 L 667.09624,569.08415 L 669.7351,569.08415 L 672.88956,578.48691 C 673.19287,579.36651 673.40518,580.03382 673.55685,580.45846 C 673.70852,579.97316 673.92085,579.27553 674.25448,578.33527 L 677.43926,569.08415 L 679.80513,569.08415 L 679.80513,582.36935 L 678.1066,582.36935 L 678.1066,571.23769 L 674.22414,582.36935 L 672.64691,582.36935 L 668.79482,571.0557 L 668.79482,582.36935 L 667.09624,582.36935"
         style="fill:#ec1b24;fill-rule:nonzero;stroke:none"
         id="path40" />
    </g>
  </g>
</svg>
