<?xml version="1.0" encoding="UTF-8" standalone="no"?>
<svg
   xmlns:dc="http://purl.org/dc/elements/1.1/"
   xmlns:cc="http://creativecommons.org/ns#"
   xmlns:rdf="http://www.w3.org/1999/02/22-rdf-syntax-ns#"
   xmlns:svg="http://www.w3.org/2000/svg"
   xmlns="http://www.w3.org/2000/svg"
   viewBox="0 0 190.66667 77"
   height="77"
   width="190.66667"
   xml:space="preserve"
   id="svg2"
   version="1.1"><metadata
     id="metadata8"><rdf:RDF><cc:Work
         rdf:about=""><dc:format>image/svg+xml</dc:format><dc:type
           rdf:resource="http://purl.org/dc/dcmitype/StillImage" /></cc:Work></rdf:RDF></metadata><defs
     id="defs6"><clipPath
       id="clipPath18"
       clipPathUnits="userSpaceOnUse"><path
         id="path16"
         d="M 0,0 H 143 V 57.75 H 0 Z" /></clipPath><linearGradient
       id="linearGradient30"
       spreadMethod="pad"
       gradientTransform="matrix(-11.4274,130.61577,-130.61577,-11.4274,289.27954,-35.336082)"
       gradientUnits="userSpaceOnUse"
       y2="0"
       x2="1"
       y1="0"
       x1="0"><stop
         id="stop24"
         offset="0"
         style="stop-opacity:1;stop-color:#a1d73c" /><stop
         id="stop26"
         offset="0.16463394"
         style="stop-opacity:1;stop-color:#a1d73c" /><stop
         id="stop28"
         offset="1"
         style="stop-opacity:1;stop-color:#56ba32" /></linearGradient><clipPath
       id="clipPath40"
       clipPathUnits="userSpaceOnUse"><path
         id="path38"
         d="M 0,57.75 H 143 V 0 H 0 Z" /></clipPath></defs><g
     transform="matrix(1.3333333,0,0,-1.3333333,0,77)"
     id="g10"><g
       id="g12"><g
         clip-path="url(#clipPath18)"
         id="g14"><g
           id="g20"><g
             id="g22"><path
               id="path32"
               style="fill:url(#linearGradient30);stroke:none"
               d="M 0,0 H 143 V 57.75 H 0 Z" /></g></g></g></g><g
       id="g34"><g
         clip-path="url(#clipPath40)"
         id="g36"><g
           transform="translate(41.3091,23.2632)"
           id="g42"><path
             id="path44"
             style="fill:#ffffff;fill-opacity:1;fill-rule:nonzero;stroke:none"
             d="m 0,0 c -0.082,0.036 -0.702,0.388 -1.623,0.388 -1.247,0 -2.111,-0.826 -2.111,-1.941 0,-1.083 0.826,-1.942 2.111,-1.942 0.907,0 1.538,0.341 1.623,0.386 v -1.956 c -0.243,-0.064 -0.903,-0.258 -1.758,-0.258 -2.172,0 -4.073,1.422 -4.073,3.77 0,2.172 1.722,3.765 4.073,3.765 0.903,0 1.573,-0.21 1.758,-0.262 z" /></g><g
           transform="translate(21.186,23.2632)"
           id="g46"><path
             id="path48"
             style="fill:#ffffff;fill-opacity:1;fill-rule:nonzero;stroke:none"
             d="m 0,0 c -0.078,0.036 -0.697,0.388 -1.619,0.388 -1.25,0 -2.114,-0.826 -2.114,-1.941 0,-1.083 0.825,-1.942 2.114,-1.942 0.906,0 1.537,0.341 1.619,0.386 v -1.956 c -0.24,-0.064 -0.899,-0.258 -1.761,-0.258 -2.167,0 -4.065,1.422 -4.065,3.77 0,2.172 1.72,3.765 4.065,3.765 0.913,0 1.578,-0.21 1.761,-0.262 z" /></g><g
           transform="translate(47.3697,23.6222)"
           id="g50"><path
             id="path52"
             style="fill:#ffffff;fill-opacity:1;fill-rule:nonzero;stroke:none"
             d="m 0,0 c -1.143,0 -1.991,-0.856 -1.991,-1.912 0,-1.061 0.848,-1.916 1.991,-1.916 1.144,0 1.995,0.855 1.995,1.916 C 1.995,-0.856 1.144,0 0,0 m 4.036,-1.912 c 0,-2.082 -1.686,-3.77 -4.036,-3.77 -2.348,0 -4.031,1.688 -4.031,3.77 0,2.077 1.683,3.765 4.031,3.765 2.35,0 4.036,-1.688 4.036,-3.765" /></g><g
           transform="translate(33.0729,23.6932)"
           id="g54"><path
             id="path56"
             style="fill:#ffffff;fill-opacity:1;fill-rule:nonzero;stroke:none"
             d="m 0,0 c -0.026,0.008 -0.839,0.221 -1.506,0.221 -0.772,0 -1.192,-0.245 -1.192,-0.598 0,-0.442 0.565,-0.595 0.881,-0.693 l 0.535,-0.158 c 1.25,-0.38 1.821,-1.197 1.821,-2.083 0,-1.828 -1.689,-2.442 -3.163,-2.442 -1.027,0 -1.982,0.181 -2.081,0.198 v 1.675 c 0.171,-0.04 0.978,-0.271 1.82,-0.271 0.957,0 1.401,0.267 1.401,0.683 0,0.367 -0.381,0.577 -0.862,0.722 -0.116,0.036 -0.289,0.089 -0.413,0.126 -1.072,0.324 -1.966,0.925 -1.966,2.127 0,1.364 1.069,2.275 2.848,2.275 0.937,0 1.821,-0.214 1.877,-0.229 z" /></g><g
           transform="translate(13.3137,33.1653)"
           id="g58"><path
             id="path60"
             style="fill:#ffffff;fill-opacity:1;fill-rule:nonzero;stroke:none"
             d="M 0,0 C 0,0.5 -0.428,0.908 -0.958,0.908 -1.48,0.908 -1.912,0.5 -1.912,0 v -1.909 c 0,-0.504 0.432,-0.911 0.954,-0.911 0.53,0 0.958,0.407 0.958,0.911 z" /></g><g
           transform="translate(18.5713,35.673)"
           id="g62"><path
             id="path64"
             style="fill:#ffffff;fill-opacity:1;fill-rule:nonzero;stroke:none"
             d="M 0,0 C 0,0.5 -0.428,0.906 -0.954,0.906 -1.484,0.906 -1.914,0.5 -1.914,0 v -4.416 c 0,-0.505 0.43,-0.911 0.96,-0.911 0.526,0 0.954,0.406 0.954,0.911 z" /></g><g
           transform="translate(23.8273,39.1011)"
           id="g66"><path
             id="path68"
             style="fill:#ffffff;fill-opacity:1;fill-rule:nonzero;stroke:none"
             d="M 0,0 C 0,0.504 -0.426,0.91 -0.955,0.91 -1.481,0.91 -1.913,0.504 -1.913,0 v -9.661 c 0,-0.503 0.432,-0.912 0.958,-0.912 0.529,0 0.955,0.409 0.955,0.912 z" /></g><g
           transform="translate(29.0849,35.673)"
           id="g70"><path
             id="path72"
             style="fill:#ffffff;fill-opacity:1;fill-rule:nonzero;stroke:none"
             d="M 0,0 C 0,0.5 -0.428,0.906 -0.953,0.906 -1.483,0.906 -1.911,0.5 -1.911,0 v -4.416 c 0,-0.505 0.428,-0.911 0.958,-0.911 0.525,0 0.953,0.406 0.953,0.911 z" /></g><g
           transform="translate(34.3367,33.1653)"
           id="g74"><path
             id="path76"
             style="fill:#ffffff;fill-opacity:1;fill-rule:nonzero;stroke:none"
             d="M 0,0 C 0,0.5 -0.425,0.908 -0.951,0.908 -1.479,0.908 -1.909,0.5 -1.909,0 v -1.909 c 0,-0.504 0.43,-0.911 0.958,-0.911 0.526,0 0.951,0.407 0.951,0.911 z" /></g><g
           transform="translate(39.5977,35.673)"
           id="g78"><path
             id="path80"
             style="fill:#ffffff;fill-opacity:1;fill-rule:nonzero;stroke:none"
             d="M 0,0 C 0,0.5 -0.427,0.906 -0.955,0.906 -1.481,0.906 -1.908,0.5 -1.908,0 v -4.416 c 0,-0.505 0.427,-0.911 0.953,-0.911 0.528,0 0.955,0.406 0.955,0.911 z" /></g><g
           transform="translate(44.8561,39.1011)"
           id="g82"><path
             id="path84"
             style="fill:#ffffff;fill-opacity:1;fill-rule:nonzero;stroke:none"
             d="M 0,0 C 0,0.504 -0.424,0.91 -0.956,0.91 -1.478,0.91 -1.909,0.504 -1.909,0 v -9.661 c 0,-0.503 0.431,-0.912 0.953,-0.912 0.532,0 0.956,0.409 0.956,0.912 z" /></g><g
           transform="translate(50.1179,35.673)"
           id="g86"><path
             id="path88"
             style="fill:#ffffff;fill-opacity:1;fill-rule:nonzero;stroke:none"
             d="M 0,0 C 0,0.5 -0.43,0.906 -0.97,0.906 -1.493,0.906 -1.924,0.5 -1.924,0 v -4.416 c 0,-0.505 0.431,-0.911 0.954,-0.911 0.54,0 0.97,0.406 0.97,0.911 z" /></g><g
           transform="translate(55.3664,33.1653)"
           id="g90"><path
             id="path92"
             style="fill:#ffffff;fill-opacity:1;fill-rule:nonzero;stroke:none"
             d="M 0,0 C 0,0.5 -0.43,0.908 -0.956,0.908 -1.484,0.908 -1.91,0.5 -1.91,0 v -1.909 c 0,-0.504 0.426,-0.911 0.954,-0.911 0.526,0 0.956,0.407 0.956,0.911 z" /></g><path
           id="path94"
           style="fill:#ffffff;fill-opacity:1;fill-rule:nonzero;stroke:none"
           d="m 25.765,18.069 h -1.931 v 7.276 h 1.931 z" /><g
           transform="translate(75.414,18.0622)"
           id="g96"><path
             id="path98"
             style="fill:#ffffff;fill-opacity:1;fill-rule:nonzero;stroke:none"
             d="M 0,0 -5.959,14.016 V 0 H -7.21 v 15.597 h 1.888 L 0.705,1.299 6.391,15.597 h 1.82 V 0 H 6.983 V 13.908 L 1.364,0 Z" /></g><g
           transform="translate(96.7827,21.1389)"
           id="g100"><path
             id="path102"
             style="fill:#ffffff;fill-opacity:1;fill-rule:nonzero;stroke:none"
             d="m 0,0 c -0.569,-2.059 -2.389,-3.4 -4.914,-3.4 -3.206,0 -5.618,2.099 -5.618,5.956 0,3.856 2.342,5.956 5.391,5.956 3.026,0 5.346,-1.949 5.346,-6.239 H -9.28 c 0.114,-3.204 2.023,-4.678 4.389,-4.678 1.775,0 3.139,0.912 3.594,2.405 z m -9.257,3.25 h 8.187 c -0.158,2.882 -1.865,4.309 -4.071,4.309 -2.16,0 -3.889,-1.492 -4.116,-4.309" /></g><g
           transform="translate(99.8573,18.0622)"
           id="g104"><path
             id="path106"
             style="fill:#ffffff;fill-opacity:1;fill-rule:nonzero;stroke:none"
             d="M 0,0 V 11.265 H 1.001 L 1.184,9.098 c 0.636,1.711 1.841,2.491 3.32,2.491 0.477,0 0.954,-0.086 1.228,-0.174 v -1.148 c -0.41,0.11 -0.819,0.197 -1.296,0.197 -1.729,0 -3.208,-1.605 -3.208,-4.311 L 1.228,0 Z" /></g><g
           transform="translate(107.1355,26.403)"
           id="g108"><path
             id="path110"
             style="fill:#ffffff;fill-opacity:1;fill-rule:nonzero;stroke:none"
             d="m 0,0 c 0.181,1.926 1.979,3.248 4.595,3.248 2.639,0 4.389,-1.407 4.389,-3.704 V -8.341 H 7.983 l -0.181,1.862 c -0.729,-1.167 -2.07,-2.185 -4.185,-2.185 -2.298,0 -3.958,1.189 -3.958,3.182 0,1.928 1.228,3.098 4.548,3.618 l 3.549,0.563 v 0.975 C 7.756,1.299 6.551,2.295 4.527,2.295 2.639,2.295 1.432,1.366 1.273,0 Z m 7.756,-4.333 v 2.102 l -3.184,-0.52 c -2.822,-0.455 -3.64,-1.3 -3.64,-2.645 0,-1.515 1.228,-2.273 3.003,-2.273 1.888,0 3.821,1.364 3.821,3.336" /></g><g
           transform="translate(119.2672,18.0622)"
           id="g112"><path
             id="path114"
             style="fill:#ffffff;fill-opacity:1;fill-rule:nonzero;stroke:none"
             d="M 0,0 V 15.597 H 1.228 V 6.674 l 5.664,4.591 H 8.553 L 2.478,6.346 9.302,0 H 7.643 L 1.228,5.957 V 0 Z" /></g><path
           id="path116"
           style="fill:#ffffff;fill-opacity:1;fill-rule:nonzero;stroke:none"
           d="m 130.119,33.659 h 1.479 v -1.602 h -1.479 z m 0.112,-4.332 h 1.228 V 18.062 h -1.228 z" /></g></g></g></svg>